<mxfile host="app.diagrams.net" modified="2022-07-09T20:56:45.279Z" agent="5.0 (Windows NT 10.0; Win64; x64) AppleWebKit/537.36 (KHTML, like Gecko) Chrome/103.0.0.0 Safari/537.36" etag="MinQLrgvr_0mBFnF7vnF" version="20.0.4" type="github">
  <diagram id="PvMebBL220HWrZMLqK-u" name="Page-1">
    <mxGraphModel dx="1038" dy="547" grid="1" gridSize="10" guides="1" tooltips="1" connect="1" arrows="1" fold="1" page="1" pageScale="1" pageWidth="850" pageHeight="1100" background="none" math="0" shadow="0">
      <root>
        <mxCell id="0" />
        <mxCell id="1" parent="0" />
        <mxCell id="0uld51XfwDDoXITDc-gx-1" value="AWS Cloud" style="points=[[0,0],[0.25,0],[0.5,0],[0.75,0],[1,0],[1,0.25],[1,0.5],[1,0.75],[1,1],[0.75,1],[0.5,1],[0.25,1],[0,1],[0,0.75],[0,0.5],[0,0.25]];outlineConnect=0;html=1;whiteSpace=wrap;fontSize=12;fontStyle=0;container=1;pointerEvents=0;collapsible=0;recursiveResize=0;shape=mxgraph.aws4.group;grIcon=mxgraph.aws4.group_aws_cloud_alt;verticalAlign=top;align=left;spacingLeft=30;dashed=0;" vertex="1" parent="1">
          <mxGeometry x="110" y="230" width="770" height="680" as="geometry" />
        </mxCell>
        <mxCell id="0uld51XfwDDoXITDc-gx-4" value="VPC" style="points=[[0,0],[0.25,0],[0.5,0],[0.75,0],[1,0],[1,0.25],[1,0.5],[1,0.75],[1,1],[0.75,1],[0.5,1],[0.25,1],[0,1],[0,0.75],[0,0.5],[0,0.25]];outlineConnect=0;gradientColor=none;html=1;whiteSpace=wrap;fontSize=12;fontStyle=0;container=1;pointerEvents=0;collapsible=0;recursiveResize=0;shape=mxgraph.aws4.group;grIcon=mxgraph.aws4.group_vpc;strokeColor=#248814;fillColor=none;verticalAlign=top;align=left;spacingLeft=30;fontColor=#AAB7B8;dashed=0;" vertex="1" parent="0uld51XfwDDoXITDc-gx-1">
          <mxGeometry x="30" y="40" width="720" height="610" as="geometry" />
        </mxCell>
        <mxCell id="0uld51XfwDDoXITDc-gx-7" value="Availability zone A" style="sketch=0;outlineConnect=0;html=1;whiteSpace=wrap;fontSize=12;fontStyle=0;shape=mxgraph.aws4.group;grIcon=mxgraph.aws4.group_availability_zone;verticalAlign=top;align=left;spacingLeft=30;dashed=1;" vertex="1" parent="0uld51XfwDDoXITDc-gx-4">
          <mxGeometry x="20" y="40" width="260" height="520" as="geometry" />
        </mxCell>
        <mxCell id="0uld51XfwDDoXITDc-gx-8" value="Availability zone B" style="sketch=0;outlineConnect=0;html=1;whiteSpace=wrap;fontSize=12;fontStyle=0;shape=mxgraph.aws4.group;grIcon=mxgraph.aws4.group_availability_zone;verticalAlign=top;align=left;spacingLeft=30;dashed=1;" vertex="1" parent="0uld51XfwDDoXITDc-gx-4">
          <mxGeometry x="440" y="40" width="260" height="520" as="geometry" />
        </mxCell>
        <mxCell id="0uld51XfwDDoXITDc-gx-12" value="Public subnet 1" style="points=[[0,0],[0.25,0],[0.5,0],[0.75,0],[1,0],[1,0.25],[1,0.5],[1,0.75],[1,1],[0.75,1],[0.5,1],[0.25,1],[0,1],[0,0.75],[0,0.5],[0,0.25]];outlineConnect=0;html=1;whiteSpace=wrap;fontSize=12;fontStyle=0;container=1;pointerEvents=0;collapsible=0;recursiveResize=0;shape=mxgraph.aws4.group;grIcon=mxgraph.aws4.group_security_group;grStroke=0;strokeColor=#0e8088;fillColor=#b0e3e6;verticalAlign=top;align=left;spacingLeft=30;dashed=0;" vertex="1" parent="0uld51XfwDDoXITDc-gx-4">
          <mxGeometry x="35" y="100" width="230" height="180" as="geometry" />
        </mxCell>
        <mxCell id="0uld51XfwDDoXITDc-gx-20" value="NAT gateway" style="sketch=0;outlineConnect=0;strokeColor=#666666;fillColor=#f5f5f5;dashed=0;verticalLabelPosition=bottom;verticalAlign=top;align=center;html=1;fontSize=12;fontStyle=0;aspect=fixed;shape=mxgraph.aws4.resourceIcon;resIcon=mxgraph.aws4.nat_gateway;gradientColor=#b3b3b3;" vertex="1" parent="0uld51XfwDDoXITDc-gx-12">
          <mxGeometry x="20" y="60" width="40" height="40" as="geometry" />
        </mxCell>
        <mxCell id="0uld51XfwDDoXITDc-gx-15" value="Public subnet 2" style="points=[[0,0],[0.25,0],[0.5,0],[0.75,0],[1,0],[1,0.25],[1,0.5],[1,0.75],[1,1],[0.75,1],[0.5,1],[0.25,1],[0,1],[0,0.75],[0,0.5],[0,0.25]];outlineConnect=0;html=1;whiteSpace=wrap;fontSize=12;fontStyle=0;container=1;pointerEvents=0;collapsible=0;recursiveResize=0;shape=mxgraph.aws4.group;grIcon=mxgraph.aws4.group_security_group;grStroke=0;strokeColor=#0e8088;fillColor=#b0e3e6;verticalAlign=top;align=left;spacingLeft=30;dashed=0;" vertex="1" parent="0uld51XfwDDoXITDc-gx-4">
          <mxGeometry x="455" y="100" width="230" height="180" as="geometry" />
        </mxCell>
        <mxCell id="0uld51XfwDDoXITDc-gx-21" value="NAT gateway" style="sketch=0;outlineConnect=0;strokeColor=#666666;fillColor=#f5f5f5;dashed=0;verticalLabelPosition=bottom;verticalAlign=top;align=center;html=1;fontSize=12;fontStyle=0;aspect=fixed;shape=mxgraph.aws4.resourceIcon;resIcon=mxgraph.aws4.nat_gateway;gradientColor=#b3b3b3;" vertex="1" parent="0uld51XfwDDoXITDc-gx-15">
          <mxGeometry x="160" y="60" width="40" height="40" as="geometry" />
        </mxCell>
        <mxCell id="0uld51XfwDDoXITDc-gx-16" value="Private subnet 1" style="points=[[0,0],[0.25,0],[0.5,0],[0.75,0],[1,0],[1,0.25],[1,0.5],[1,0.75],[1,1],[0.75,1],[0.5,1],[0.25,1],[0,1],[0,0.75],[0,0.5],[0,0.25]];outlineConnect=0;html=1;whiteSpace=wrap;fontSize=12;fontStyle=0;container=1;pointerEvents=0;collapsible=0;recursiveResize=0;shape=mxgraph.aws4.group;grIcon=mxgraph.aws4.group_security_group;grStroke=0;verticalAlign=top;align=left;spacingLeft=30;dashed=0;fillColor=#dae8fc;strokeColor=#6c8ebf;" vertex="1" parent="0uld51XfwDDoXITDc-gx-4">
          <mxGeometry x="31.5" y="320" width="230" height="180" as="geometry" />
        </mxCell>
        <mxCell id="0uld51XfwDDoXITDc-gx-17" value="Private subnet 2" style="points=[[0,0],[0.25,0],[0.5,0],[0.75,0],[1,0],[1,0.25],[1,0.5],[1,0.75],[1,1],[0.75,1],[0.5,1],[0.25,1],[0,1],[0,0.75],[0,0.5],[0,0.25]];outlineConnect=0;html=1;whiteSpace=wrap;fontSize=12;fontStyle=0;container=1;pointerEvents=0;collapsible=0;recursiveResize=0;shape=mxgraph.aws4.group;grIcon=mxgraph.aws4.group_security_group;grStroke=0;strokeColor=#6c8ebf;fillColor=#dae8fc;verticalAlign=top;align=left;spacingLeft=30;dashed=0;" vertex="1" parent="0uld51XfwDDoXITDc-gx-4">
          <mxGeometry x="455" y="320" width="230" height="180" as="geometry" />
        </mxCell>
        <mxCell id="0uld51XfwDDoXITDc-gx-25" value="AWS EC2" style="sketch=0;points=[[0,0,0],[0.25,0,0],[0.5,0,0],[0.75,0,0],[1,0,0],[0,1,0],[0.25,1,0],[0.5,1,0],[0.75,1,0],[1,1,0],[0,0.25,0],[0,0.5,0],[0,0.75,0],[1,0.25,0],[1,0.5,0],[1,0.75,0]];outlineConnect=0;fontColor=#232F3E;gradientColor=#F78E04;gradientDirection=north;fillColor=#D05C17;strokeColor=#ffffff;dashed=0;verticalLabelPosition=bottom;verticalAlign=top;align=center;html=1;fontSize=12;fontStyle=0;aspect=fixed;shape=mxgraph.aws4.resourceIcon;resIcon=mxgraph.aws4.ec2;" vertex="1" parent="0uld51XfwDDoXITDc-gx-17">
          <mxGeometry x="95" y="70" width="40" height="40" as="geometry" />
        </mxCell>
        <mxCell id="0uld51XfwDDoXITDc-gx-51" value="Security group" style="fillColor=none;strokeColor=#DD3522;verticalAlign=top;fontStyle=0;fontColor=#DD3522;fontSize=10;" vertex="1" parent="0uld51XfwDDoXITDc-gx-17">
          <mxGeometry x="50" y="44" width="130" height="92" as="geometry" />
        </mxCell>
        <mxCell id="0uld51XfwDDoXITDc-gx-26" value="&lt;font style=&quot;font-size: 10px;&quot;&gt;Auto scaling group&lt;/font&gt;" style="sketch=0;outlineConnect=0;fontColor=#232F3E;gradientColor=none;fillColor=#D45B07;strokeColor=none;dashed=0;verticalLabelPosition=bottom;verticalAlign=top;align=center;html=1;fontSize=12;fontStyle=0;aspect=fixed;pointerEvents=1;shape=mxgraph.aws4.auto_scaling2;" vertex="1" parent="0uld51XfwDDoXITDc-gx-4">
          <mxGeometry x="330" y="358" width="42" height="42" as="geometry" />
        </mxCell>
        <mxCell id="0uld51XfwDDoXITDc-gx-28" value="" style="rounded=1;arcSize=10;dashed=1;fillColor=none;gradientColor=none;dashPattern=8 3 1 3;strokeWidth=2;" vertex="1" parent="0uld51XfwDDoXITDc-gx-4">
          <mxGeometry x="55" y="352.25" width="615" height="123.5" as="geometry" />
        </mxCell>
        <mxCell id="0uld51XfwDDoXITDc-gx-24" value="AWS EC2" style="sketch=0;points=[[0,0,0],[0.25,0,0],[0.5,0,0],[0.75,0,0],[1,0,0],[0,1,0],[0.25,1,0],[0.5,1,0],[0.75,1,0],[1,1,0],[0,0.25,0],[0,0.5,0],[0,0.75,0],[1,0.25,0],[1,0.5,0],[1,0.75,0]];outlineConnect=0;fontColor=#232F3E;gradientColor=#F78E04;gradientDirection=north;fillColor=#D05C17;strokeColor=#ffffff;dashed=0;verticalLabelPosition=bottom;verticalAlign=top;align=center;html=1;fontSize=12;fontStyle=0;aspect=fixed;shape=mxgraph.aws4.resourceIcon;resIcon=mxgraph.aws4.ec2;" vertex="1" parent="0uld51XfwDDoXITDc-gx-4">
          <mxGeometry x="126.5" y="390" width="40" height="40" as="geometry" />
        </mxCell>
        <mxCell id="0uld51XfwDDoXITDc-gx-50" value="Security group" style="fillColor=none;strokeColor=#DD3522;verticalAlign=top;fontStyle=0;fontColor=#DD3522;fontSize=10;" vertex="1" parent="0uld51XfwDDoXITDc-gx-4">
          <mxGeometry x="79.75" y="370" width="133.5" height="88" as="geometry" />
        </mxCell>
        <mxCell id="0uld51XfwDDoXITDc-gx-53" value="Route table" style="outlineConnect=0;dashed=0;verticalLabelPosition=bottom;verticalAlign=top;align=center;html=1;shape=mxgraph.aws3.route_table;fillColor=#F58536;gradientColor=none;fontSize=10;" vertex="1" parent="0uld51XfwDDoXITDc-gx-4">
          <mxGeometry x="310" y="260" width="100" height="69" as="geometry" />
        </mxCell>
        <mxCell id="0uld51XfwDDoXITDc-gx-56" value="Application Load Balancer" style="sketch=0;outlineConnect=0;fontColor=#232F3E;gradientColor=none;fillColor=#4D27AA;strokeColor=none;dashed=0;verticalLabelPosition=bottom;verticalAlign=top;align=center;html=1;fontSize=12;fontStyle=0;aspect=fixed;pointerEvents=1;shape=mxgraph.aws4.application_load_balancer;" vertex="1" parent="0uld51XfwDDoXITDc-gx-4">
          <mxGeometry x="330" y="80" width="60" height="60" as="geometry" />
        </mxCell>
        <mxCell id="0uld51XfwDDoXITDc-gx-57" value="Internet gateway" style="sketch=0;outlineConnect=0;fontColor=#232F3E;gradientColor=none;fillColor=#4D27AA;strokeColor=none;dashed=0;verticalLabelPosition=bottom;verticalAlign=top;align=center;html=1;fontSize=12;fontStyle=0;aspect=fixed;pointerEvents=1;shape=mxgraph.aws4.internet_gateway;" vertex="1" parent="0uld51XfwDDoXITDc-gx-4">
          <mxGeometry x="335" y="-30" width="50" height="50" as="geometry" />
        </mxCell>
        <mxCell id="0uld51XfwDDoXITDc-gx-60" value="" style="sketch=0;outlineConnect=0;fontColor=#232F3E;gradientColor=none;fillColor=#232F3D;strokeColor=none;dashed=0;verticalLabelPosition=bottom;verticalAlign=top;align=center;html=1;fontSize=12;fontStyle=0;aspect=fixed;pointerEvents=1;shape=mxgraph.aws4.users;" vertex="1" parent="1">
          <mxGeometry x="440" y="90" width="78" height="78" as="geometry" />
        </mxCell>
      </root>
    </mxGraphModel>
  </diagram>
</mxfile>
